<svg xmlns="http://www.w3.org/2000/svg" width="20" height="20" viewBox="0 0 20 20"><path d="M227.571,154.9H210.385a1,1,0,0,1-.921-1.4,5,5,0,0,1,4.514-2.853h10a5,5,0,0,1,4.514,2.853,1,1,0,0,1-.921,1.4Z" transform="translate(-208.978 -148.203)" fill="#0f5699"/><path d="M228.978,156.953v6.25a5,5,0,0,1-5,5h-10a5,5,0,0,1-5-5v-6.25a1,1,0,0,1,1-1h18A1,1,0,0,1,228.978,156.953Z" transform="translate(-208.978 -148.203)" fill="#0f5699"/><path d="M223.219,153.1a.769.769,0,0,1-.769-.769v-3.356a.769.769,0,1,1,1.538,0v3.355A.769.769,0,0,1,223.219,153.1Z" transform="translate(-208.978 -148.203)" fill="#0f5699"/><path d="M214.737,153.1a.769.769,0,0,1-.769-.769v-3.356a.769.769,0,1,1,1.538,0v3.355a.769.769,0,0,1-.769.769Z" transform="translate(-208.978 -148.203)" fill="#0f5699"/></svg>