<svg xmlns="http://www.w3.org/2000/svg" width="16.69" height="15.878" viewBox="0 0 16.69 15.878"><g transform="translate(0 -12.437)"><g transform="translate(0 12.437)"><path d="M253.714,20.376l-1.889-2.1.3-2.808-2.763-.585-1.409-2.448-2.579,1.153-.348,6.786.348,6.786,2.579,1.153,1.409-2.448,2.763-.585-.3-2.808Z" transform="translate(-237.024 -12.437)" fill="#0ed678"/><path d="M5.766,12.437,4.356,14.885l-2.763.585.3,2.808L0,20.376l1.889,2.1-.3,2.808,2.763.585,1.409,2.448,2.579-1.153V13.59Z" transform="translate(0 -12.437)" fill="#04eb84"/></g><g transform="translate(4.744 17.897)"><path d="M248.868,180.377l-.73-.652-2.768,3.1-.348.771.348.7Z" transform="translate(-241.768 -179.725)" fill="#f7f0eb"/><path d="M146.04,233.1l-.692.692,2.911,2.911.69-.774v-1.47l-.731.819Z" transform="translate(-145.348 -231.353)" fill="#fffbf5"/></g></g></svg>