<svg xmlns="http://www.w3.org/2000/svg" width="21.5" height="21.738" viewBox="0 0 21.5 21.738"><g transform="translate(0.75 0.98)"><path d="M100.286,274.707h-10a5,5,0,0,1-5-5V264.7a5,5,0,0,1,1.6-3.667l5.68-5.265a4,4,0,0,1,5.438,0l5.68,5.265a5,5,0,0,1,1.6,3.667v5.009A5,5,0,0,1,100.286,274.707Z" transform="translate(-85.286 -254.7)" fill="none" stroke="#9898ae" stroke-linecap="round" stroke-linejoin="round" stroke-miterlimit="10" stroke-width="1.5"/><path d="M90.151,261.918l1.082.833a6.664,6.664,0,0,0,8.131,0l1.028-.792" transform="translate(-85.272 -249.82)" fill="none" stroke="#9898ae" stroke-linecap="round" stroke-linejoin="round" stroke-miterlimit="10" stroke-width="1"/></g></svg>