<svg xmlns="http://www.w3.org/2000/svg" xmlns:xlink="http://www.w3.org/1999/xlink" width="16" height="16" viewBox="0 0 16 16"><defs><clipPath id="a"><rect width="16" height="16" transform="translate(204 203)" fill="#151534" stroke="#707070" stroke-width="1"/></clipPath></defs><g transform="translate(-204 -203)" clip-path="url(#a)"><g transform="translate(204 203)"><path d="M0,0H16V16H0Z" fill="none"/><path d="M13.378,5.652a3.242,3.242,0,0,1,.2,2.218c-.493,2.537-2.184,3.413-4.343,3.413H8.9a.537.537,0,0,0-.529.453l-.027.147-.42,2.662-.021.113a.536.536,0,0,1-.529.453H5.147a.322.322,0,0,1-.318-.372L4.945,14H5.957l.633-4.013h.923C10.633,9.987,12.681,8.518,13.378,5.652ZM11.4,2.259a2.411,2.411,0,0,1,.5,2.19c-.013.082-.027.16-.041.24C11.375,7.2,9.805,8.319,7.227,8.319H5.971a.944.944,0,0,0-.9.668H5.059l-.62,3.929H2.081a.034.034,0,0,1-.033-.04L3.779,1.869A.633.633,0,0,1,4.4,1.333H8.389a3.942,3.942,0,0,1,3.015.925Z" fill="#151534"/></g></g></svg>