<svg xmlns="http://www.w3.org/2000/svg" xmlns:xlink="http://www.w3.org/1999/xlink" width="16" height="16" viewBox="0 0 16 16">
  <defs>
    <clipPath id="clip-path">
      <rect id="Rectangle_8966" data-name="Rectangle 8966" width="16" height="16" transform="translate(44 215)" fill="#fff" stroke="#707070" stroke-width="1"/>
    </clipPath>
  </defs>
  <g id="Mask_Group_1885" data-name="Mask Group 1885" transform="translate(-44 -215)" clip-path="url(#clip-path)">
    <g id="bank-card-fill_1_" data-name="bank-card-fill (1)" transform="translate(44 215)">
      <path id="Path_18989" data-name="Path 18989" d="M0,0H16V16H0Z" fill="none"/>
      <path id="Path_18990" data-name="Path 18990" d="M15.333,7.667v6.667a.667.667,0,0,1-.667.667h-12A.667.667,0,0,1,2,14.333V7.667Zm0-1.333H2V3.667A.667.667,0,0,1,2.667,3h12a.667.667,0,0,1,.667.667Zm-4.667,5.333V13h2.667V11.667Z" transform="translate(-0.667 -1)" fill="#fff"/>
    </g>
  </g>
</svg>
