<svg xmlns="http://www.w3.org/2000/svg" width="13.059" height="12.798" viewBox="0 0 13.059 12.798"><g transform="translate(326.5 246.6)"><path d="M13.428,4.637H12.067V3.964A.566.566,0,0,0,11.5,3.4a.554.554,0,0,0-.55.564v.674H7.105V3.964A.566.566,0,0,0,6.541,3.4a.557.557,0,0,0-.564.564v.674H4.631A2.133,2.133,0,0,0,2.5,6.768v7.3A2.133,2.133,0,0,0,4.631,16.2h8.8a2.133,2.133,0,0,0,2.131-2.131v-7.3A2.141,2.141,0,0,0,13.428,4.637Zm-8.8,1.113H5.992v.674a.566.566,0,0,0,.564.564.557.557,0,0,0,.564-.564V5.751h3.849v.674a.566.566,0,0,0,.564.564.557.557,0,0,0,.564-.564V5.751h1.333a1.015,1.015,0,0,1,1.017,1.017v1.65H3.613V6.768A1.015,1.015,0,0,1,4.631,5.751Z" transform="translate(-329 -250)" fill="#9898ae"/></g></svg>